<?xml version="1.0" standalone="no"?>
<!DOCTYPE svg PUBLIC "-//W3C//DTD SVG 1.1//EN"
"http://www.w3.org/Graphics/SVG/1.1/DTD/svg11.dtd">

<svg width="369" height="211" view_box="0 0 369 211"
xmlns="http://www.w3.org/2000/svg"
xmlns:link="http://www.w3.org/1999/xlink">\n\n<desc>Généré par Mocodo 2.3.7 le Thu, 15 Jul 2021 06:07:24</desc>

<rect id="frame" x="0" y="0" width="369" height="211" fill="#f7f7f7" stroke="none" stroke-width="0"/>

<!-- Association POSSEDE -->
<line x1="313" y1="143" x2="197" y2="143" stroke="#de77ae" stroke-width="2"/>
<text x="239" y="160.0" fill="#4d9221" font-family="Verdana" font-size="12">0,N</text>
<line x1="197" y1="34" x2="197" y2="143" stroke="#de77ae" stroke-width="2"/>
<text x="202.0" y="76" fill="#4d9221" font-family="Verdana" font-size="12">1,1</text>
<g id="association-POSSEDE">
	<path d="M 220 118 a 14 14 90 0 1 14 14 V 143 h -74 V 132 a 14 14 90 0 1 14 -14" fill="#f1b6da" stroke="#f1b6da" stroke-width="0"/>
	<path d="M 234 143.0 v 11 a 14 14 90 0 1 -14 14 H 174 a 14 14 90 0 1 -14 -14 V 143.0 H 74" fill="#fde0ef" stroke="#fde0ef" stroke-width="0"/>
	<rect x="160" y="118" width="74" height="50" fill="none" rx="14" stroke="#de77ae" stroke-width="2"/>
	<line x1="160" y1="143" x2="234" y2="143" stroke="#de77ae" stroke-width="1"/>
	<text x="167" y="135.7" fill="#000000" font-family="Verdana" font-size="12">POSSEDE</text>
</g>

<!-- Association APPARTIENT A -->
<line x1="197" y1="34" x2="61" y2="34" stroke="#de77ae" stroke-width="2"/>
<text x="118" y="51.0" fill="#4d9221" font-family="Verdana" font-size="12">0,N</text>
<line x1="61" y1="143" x2="61" y2="34" stroke="#de77ae" stroke-width="2"/>
<text x="66.0" y="101" fill="#4d9221" font-family="Verdana" font-size="12">0,N</text>
<g id="association-APPARTIENT A">
	<path d="M 99 9 a 14 14 90 0 1 14 14 V 34 h -104 V 23 a 14 14 90 0 1 14 -14" fill="#f1b6da" stroke="#f1b6da" stroke-width="0"/>
	<path d="M 113 34.0 v 11 a 14 14 90 0 1 -14 14 H 23 a 14 14 90 0 1 -14 -14 V 34.0 H 104" fill="#fde0ef" stroke="#fde0ef" stroke-width="0"/>
	<rect x="9" y="9" width="104" height="50" fill="none" rx="14" stroke="#de77ae" stroke-width="2"/>
	<line x1="9" y1="34" x2="113" y2="34" stroke="#de77ae" stroke-width="1"/>
	<text x="16" y="26.7" fill="#000000" font-family="Verdana" font-size="12">APPARTIENT A</text>
</g>

<!-- Entity BIBLIOTHEQUE -->
<g id="entity-BIBLIOTHEQUE">
	<g id="frame-BIBLIOTHEQUE">
		<rect x="145" y="9" width="104" height="25" fill="#b8e186" stroke="#b8e186" stroke-width="0"/>
		<rect x="145" y="34.0" width="104" height="25" fill="#e6f5d0" stroke="#e6f5d0" stroke-width="0"/>
		<rect x="145" y="9" width="104" height="50" fill="none" stroke="#7fbc41" stroke-width="2"/>
		<line x1="145" y1="34" x2="249" y2="34" stroke="#7fbc41" stroke-width="1"/>
	</g>
	<text x="150" y="26.7" fill="#000000" font-family="Verdana" font-size="12">BIBLIOTHEQUE</text>
	<text x="150" y="51.8" fill="#000000" font-family="Verdana" font-size="12">name</text>
</g>

<!-- Entity UTILISATEUR -->
<g id="entity-UTILISATEUR">
	<g id="frame-UTILISATEUR">
		<rect x="266" y="84" width="94" height="25" fill="#b8e186" stroke="#b8e186" stroke-width="0"/>
		<rect x="266" y="109.0" width="94" height="93" fill="#e6f5d0" stroke="#e6f5d0" stroke-width="0"/>
		<rect x="266" y="84" width="94" height="118" fill="none" stroke="#7fbc41" stroke-width="2"/>
		<line x1="266" y1="109" x2="360" y2="109" stroke="#7fbc41" stroke-width="1"/>
	</g>
	<text x="271" y="101.7" fill="#000000" font-family="Verdana" font-size="12">UTILISATEUR</text>
	<text x="271" y="126.7" fill="#000000" font-family="Verdana" font-size="12">email</text>
	<text x="271" y="143.8" fill="#000000" font-family="Verdana" font-size="12">pseudo</text>
	<text x="271" y="160.8" fill="#000000" font-family="Verdana" font-size="12">mot de passe</text>
	<text x="271" y="177.8" fill="#000000" font-family="Verdana" font-size="12">adulte</text>
	<text x="271" y="194.8" fill="#000000" font-family="Verdana" font-size="12">rôle</text>
</g>

<!-- Entity FILM -->
<g id="entity-FILM">
	<g id="frame-FILM">
		<rect x="11" y="109" width="100" height="25" fill="#b8e186" stroke="#b8e186" stroke-width="0"/>
		<rect x="11" y="134.0" width="100" height="43" fill="#e6f5d0" stroke="#e6f5d0" stroke-width="0"/>
		<rect x="11" y="109" width="100" height="68" fill="none" stroke="#7fbc41" stroke-width="2"/>
		<line x1="11" y1="134" x2="111" y2="134" stroke="#7fbc41" stroke-width="1"/>
	</g>
	<text x="46" y="126.7" fill="#000000" font-family="Verdana" font-size="12">FILM</text>
	<text x="16" y="151.8" fill="#000000" font-family="Verdana" font-size="12">id_themoviedb</text>
	<line x1="16" y1="154" x2="106" y2="154" stroke="#000000" stroke-width="1"/>
	<text x="16" y="168.8" fill="#000000" font-family="Verdana" font-size="12">vu</text>
</g>
</svg>